<svg width="24" height="24" viewBox="0 0 24 24" fill="none" xmlns="http://www.w3.org/2000/svg">
<path d="M12.9999 8.16999C12.9999 7.53758 12.8747 6.91142 12.6315 6.32765C12.3883 5.74388 12.0319 5.21405 11.5828 4.76873C11.1338 4.32341 10.601 3.97142 10.0152 3.73306C9.42946 3.49471 8.80228 3.37471 8.16989 3.37999V3.37999C7.54049 3.37867 6.91703 3.50167 6.33528 3.74192C5.75354 3.98217 5.22497 4.33495 4.77991 4.78001C4.33486 5.22506 3.98208 5.75363 3.74183 6.33538C3.50157 6.91712 3.37858 7.54059 3.37989 8.16999V8.16999C3.37858 9.80532 3.69971 11.4249 4.32491 12.936C4.95012 14.4471 5.86713 15.82 7.02348 16.9764C8.17983 18.1328 9.55283 19.0498 11.0639 19.675C12.575 20.3002 14.1946 20.6213 15.8299 20.62V20.62C16.4593 20.6213 17.0828 20.4983 17.6645 20.2581C18.2462 20.0178 18.7748 19.665 19.2199 19.22C19.6649 18.7749 20.0177 18.2463 20.258 17.6646C20.4982 17.0829 20.6212 16.4594 20.6199 15.83V15.83C20.6252 15.1976 20.5052 14.5704 20.2668 13.9846C20.0285 13.3989 19.6765 12.8661 19.2312 12.4171C18.7858 11.968 18.256 11.6116 17.6722 11.3684C17.0885 11.1252 16.4623 11 15.8299 11V11C15.0833 10.9871 14.371 10.6849 13.843 10.1569C13.315 9.62892 13.0127 8.91654 12.9999 8.16999V8.16999Z" stroke="#103178" stroke-width="1.92" stroke-miterlimit="10"/>
<path d="M5.29012 11.05C6.3505 11.05 7.21012 10.1904 7.21012 9.13002C7.21012 8.06964 6.3505 7.21002 5.29012 7.21002C4.22973 7.21002 3.37012 8.06964 3.37012 9.13002C3.37012 10.1904 4.22973 11.05 5.29012 11.05Z" stroke="#103178" stroke-width="1.92" stroke-miterlimit="10"/>
<path d="M15.8302 14.88C16.8905 14.88 17.7502 14.0204 17.7502 12.96C17.7502 11.8996 16.8905 11.04 15.8302 11.04C14.7698 11.04 13.9102 11.8996 13.9102 12.96C13.9102 14.0204 14.7698 14.88 15.8302 14.88Z" stroke="#103178" stroke-width="1.92" stroke-miterlimit="10"/>
<path d="M8.16992 12.96H10.0799" stroke="#103178" stroke-width="1.92" stroke-miterlimit="10"/>
<path d="M9.12988 8.16998H11.0399" stroke="#103178" stroke-width="1.92" stroke-miterlimit="10"/>
<path d="M11.04 16.79H12.96" stroke="#103178" stroke-width="1.92" stroke-miterlimit="10"/>
<path d="M14.8799 17.75H16.7899" stroke="#103178" stroke-width="1.92" stroke-miterlimit="10"/>
<path d="M8.16992 0.5V3.38" stroke="#103178" stroke-width="1.92" stroke-miterlimit="10"/>
<path d="M20.6299 16.79H23.4999" stroke="#103178" stroke-width="1.92" stroke-miterlimit="10"/>
<path d="M7.21006 16.79L4.81006 19.19" stroke="#103178" stroke-width="1.92" stroke-miterlimit="10"/>
<path d="M13.9199 10.08L16.3099 7.69" stroke="#103178" stroke-width="1.92" stroke-miterlimit="10"/>
<path d="M19.6699 12.96L21.5799 11.04" stroke="#103178" stroke-width="1.92" stroke-miterlimit="10"/>
<path d="M11.04 4.32998L12.96 2.41998" stroke="#103178" stroke-width="1.92" stroke-miterlimit="10"/>
<path d="M13.9199 20.63V23.5" stroke="#103178" stroke-width="1.92" stroke-miterlimit="10"/>
<path d="M3.38 8.16998H0.5" stroke="#103178" stroke-width="1.92" stroke-miterlimit="10"/>
<path d="M4.32992 5.29L2.41992 3.38" stroke="#103178" stroke-width="1.92" stroke-miterlimit="10"/>
<path d="M18.71 19.67L21.58 22.54" stroke="#103178" stroke-width="1.92" stroke-miterlimit="10"/>
<path d="M1.45996 14.88L4.32996 12" stroke="#103178" stroke-width="1.92" stroke-miterlimit="10"/>
<path d="M9.12988 22.54L11.9999 19.67" stroke="#103178" stroke-width="1.92" stroke-miterlimit="10"/>
</svg>
