<svg width="15" height="15" viewBox="0 0 15 15" fill="none" xmlns="http://www.w3.org/2000/svg">
<path d="M0 1.5C0 0.671573 0.671573 0 1.5 0H13.5C14.3284 0 15 0.671573 15 1.5C15 2.32843 14.3284 3 13.5 3H1.5C0.671573 3 0 2.32843 0 1.5Z" fill="#333333"/>
<path d="M0 7.5C0 6.67157 0.671573 6 1.5 6H13.5C14.3284 6 15 6.67157 15 7.5C15 8.32843 14.3284 9 13.5 9H1.5C0.671573 9 0 8.32843 0 7.5Z" fill="#333333"/>
<path d="M0 13.5C0 12.6716 0.671573 12 1.5 12H13.5C14.3284 12 15 12.6716 15 13.5C15 14.3284 14.3284 15 13.5 15H1.5C0.671573 15 0 14.3284 0 13.5Z" fill="#333333"/>
</svg>
