<svg width="15" height="15" viewBox="0 0 15 15" fill="none" xmlns="http://www.w3.org/2000/svg">
<path d="M0 3C0 1.34315 1.34315 0 3 0C4.65685 0 6 1.34315 6 3C6 4.65685 4.65685 6 3 6C1.34315 6 0 4.65685 0 3Z" fill="#333333"/>
<path d="M9 3C9 1.34315 10.3431 0 12 0C13.6569 0 15 1.34315 15 3C15 4.65685 13.6569 6 12 6C10.3431 6 9 4.65685 9 3Z" fill="#333333"/>
<path d="M0 12C0 10.3431 1.34315 9 3 9C4.65685 9 6 10.3431 6 12C6 13.6569 4.65685 15 3 15C1.34315 15 0 13.6569 0 12Z" fill="#333333"/>
<path d="M9 12C9 10.3431 10.3431 9 12 9C13.6569 9 15 10.3431 15 12C15 13.6569 13.6569 15 12 15C10.3431 15 9 13.6569 9 12Z" fill="#333333"/>
</svg>
