<svg width="24" height="24" viewBox="0 0 24 24" fill="none" xmlns="http://www.w3.org/2000/svg">
<path d="M12 22.5C17.799 22.5 22.5 17.799 22.5 12C22.5 6.20101 17.799 1.5 12 1.5C6.20101 1.5 1.5 6.20101 1.5 12C1.5 17.799 6.20101 22.5 12 22.5Z" stroke="#103178" stroke-width="1.91" stroke-miterlimit="10"/>
<path d="M14.1099 6.07001C14.9099 6.86001 14.4999 7.27001 15.2999 8.07001C16.0999 8.87001 16.4999 8.47001 17.2999 9.26001C18.0999 10.05 17.6899 10.46 18.4899 11.26" stroke="#103178" stroke-width="1.91" stroke-miterlimit="10"/>
<path d="M6.56023 9.14001C6.56023 10.09 5.99023 10.09 5.99023 11.04C5.99023 11.99 6.56023 12.04 6.56023 12.95C6.56023 13.86 6.00023 13.91 6.00023 14.86" stroke="#103178" stroke-width="1.91" stroke-miterlimit="10"/>
<path d="M9 18.44C9.79 17.96 10.09 18.44 10.88 17.97C11.67 17.5 11.38 16.97 12.18 16.53C12.98 16.09 13.27 16.53 14.07 16.06" stroke="#103178" stroke-width="1.91" stroke-miterlimit="10"/>
<path d="M8.18018 6.27002H10.0902" stroke="#103178" stroke-width="1.91" stroke-miterlimit="10"/>
<path d="M10.0898 12H11.9998" stroke="#103178" stroke-width="1.91" stroke-miterlimit="10"/>
<path d="M16.77 15.82H18.68" stroke="#103178" stroke-width="1.91" stroke-miterlimit="10"/>
</svg>
